<svg class="inline-block w-10 h-10" xmlns="http://www.w3.org/2000/svg" xmlns:xlink="http://www.w3.org/1999/xlink" id="Capa_1" x="0px" y="0px" viewBox="0 0 511.999 511.999" style="enable-background:new 0 0 511.999 511.999;" xml:space="preserve"> 
    <path d="M374.941,133.407l-54.899-39.74c0.053-0.467,0.087-0.94,0.087-1.42V76.205c0-6.9-5.613-12.513-12.513-12.513h-3.341 l-11.296-15.414V12.513c0-6.9-5.613-12.513-12.513-12.513h-48.935c-6.9,0-12.513,5.613-12.513,12.513v35.765l-11.296,15.414 h-3.341c-6.9,0-12.513,5.613-12.513,12.513v16.041c0,0.482,0.034,0.954,0.087,1.42l-54.899,39.739 c-2.255,1.633-3.379,4.349-3.032,7.038v56.493c0,4.146,3.361,7.508,7.508,7.508s7.508-3.361,7.508-7.508v-49.944h213.918v165.396 c0,4.146,3.362,7.508,7.508,7.508c4.146,0,7.508-3.362,7.508-7.508V140.445C378.32,137.755,377.196,135.039,374.941,133.407z M234.033,15.016h43.929v28.211h-43.929V15.016z M230.333,58.242h51.332l3.406,4.647h-58.143L230.333,58.242z M206.883,78.707 h98.23v11.035h-98.23V78.707z M164.634,131.98l37.605-27.221h2.142h103.236h2.142l37.605,27.221H164.634z" fill="#f4bc22"></path><path d="M370.465,354.936c-4.146,0-7.508,3.361-7.508,7.508v103.953H149.04V248.326c0-4.146-3.361-7.508-7.508-7.508 c-4.146,0-7.508,3.361-7.508,7.508v236.851c0,14.79,12.033,26.823,26.823,26.823h190.303c14.79,0,26.823-12.033,26.823-26.823 V362.443C377.973,358.297,374.612,354.936,370.465,354.936z M362.958,485.177c0,6.51-5.298,11.807-11.807,11.807H160.847 c-6.511,0-11.807-5.297-11.807-11.807v-3.765h213.918V485.177z" fill="#f4bc22"></path><circle cx="264.122" cy="27.248" r="8.121" fill="#f4bc22"></circle>
</svg>